<svg width="40" height="40" viewBox="0 0 40 40" fill="none" xmlns="http://www.w3.org/2000/svg">
<g clip-path="url(#clip0_1700_5252)">
<g clip-path="url(#clip1_1700_5252)">
<path d="M19.9994 0C8.97132 0 0 8.97265 0 19.9994C0 31.0262 8.97132 40 19.9994 40C31.0274 40 40 31.0274 40 19.9994C40 8.97132 31.0274 0 19.9994 0Z" fill="white"/>
<path d="M30.9721 6.3049C28.5281 12.6548 22.0415 11.8327 17.462 11.9916L16.3496 16.3256C21.9969 11.7289 29.4619 16.2862 28.6633 23.231C28.1262 27.9091 24.7916 30.9678 21.2641 31.8478C17.4199 32.8066 13.1621 31.3725 11.2526 27.4547C10.9885 26.907 10.7578 26.3439 10.5617 25.7684L14.616 24.7283C14.6943 24.9624 14.802 25.1857 14.9364 25.3928C17.6498 29.7687 23.1487 27.5808 23.7699 23.0419C24.4003 18.423 17.9203 15.9618 14.9706 21.3596L11.3734 19.8203L11.3104 19.7941L12.6486 14.4226C12.8627 13.4665 13.4997 10.9725 13.5679 10.7308C13.6822 10.3578 13.7072 10.2344 13.8306 9.89555C16.1342 3.84243 20.6888 3.23172 24.7312 3.23172C24.8928 3.23172 25.053 3.23172 25.2119 3.23172C21.0286 1.9215 16.507 2.21969 12.532 4.0679C8.55706 5.91611 5.41497 9.18131 3.72077 13.2243C2.02659 17.2673 1.90228 21.7971 3.37218 25.9269C4.84209 30.0569 7.80038 33.4893 11.668 35.5528C15.5356 37.6163 20.0341 38.1619 24.2829 37.0831C28.5318 36.0043 32.2251 33.3787 34.6398 29.7201C37.0545 26.0615 38.0169 21.6334 37.3386 17.3025C36.6601 12.9717 34.3898 9.04993 30.9721 6.3049Z" fill="#E52322"/>
<path d="M29.3688 5.10986C28.6885 7.22301 27.5012 8.55342 25.6665 9.26919C23.7569 10.0125 21.4336 10.0322 19.1852 10.0572C17.977 10.0664 16.8213 10.0756 15.7601 10.203C17.667 5.5958 21.0909 5.14139 24.7419 5.14139C25.2502 5.14139 25.7598 5.15189 26.2523 5.16239C26.7448 5.17292 27.2097 5.1808 27.6733 5.1808C28.3378 5.1808 28.8841 5.1611 29.3688 5.11642" fill="#00923A"/>
</g>
</g>
<defs>
<clipPath id="clip0_1700_5252">
<path d="M0 20C0 8.95431 8.95431 0 20 0V0C31.0457 0 40 8.95431 40 20V20C40 31.0457 31.0457 40 20 40V40C8.95431 40 0 31.0457 0 20V20Z" fill="white"/>
</clipPath>
<clipPath id="clip1_1700_5252">
<path d="M0 20C0 8.95431 8.95431 0 20 0V0C31.0457 0 40 8.95431 40 20V20C40 31.0457 31.0457 40 20 40V40C8.95431 40 0 31.0457 0 20V20Z" fill="white"/>
</clipPath>
</defs>
</svg>
