<svg width="40" height="40" viewBox="0 0 40 40" fill="none" xmlns="http://www.w3.org/2000/svg">
<g clip-path="url(#clip0_1700_5281)">
<rect width="40" height="40" fill="#005A28"/>
<path d="M22.9212 15.863L19.9755 18.7893L17.0293 15.863C15.4043 14.2487 15.4043 11.6255 17.0293 9.96054C18.6543 8.34616 21.2962 8.34616 22.9212 9.96054C24.5462 11.6255 24.5462 14.2487 22.9212 15.863Z" fill="white"/>
<path d="M17.0293 24.1361L19.9755 21.2105L22.9212 24.1361C24.5462 25.7505 24.5462 28.3736 22.9212 30.0386C21.2962 31.653 18.6549 31.653 17.0293 30.0386C15.4043 28.3742 15.4043 25.7511 17.0293 24.1361Z" fill="white"/>
<path d="M24.1375 22.9769L21.1912 20.0006L24.1375 17.0744C25.7625 15.46 28.4037 15.46 30.0293 17.0744C31.6543 18.6888 31.6543 21.3119 30.0293 22.9769C28.4043 24.5913 25.7625 24.5913 24.1375 22.9769Z" fill="white"/>
<path d="M15.8606 17.0743L18.8069 20.0005L15.8606 22.9262C14.2356 24.5412 11.5944 24.5412 9.96875 22.9262C8.34375 21.3118 8.34375 18.6887 9.96875 17.0237C11.5438 15.4599 14.2356 15.4599 15.8606 17.0743Z" fill="white"/>
</g>
<defs>
<clipPath id="clip0_1700_5281">
<path d="M0 20C0 8.95431 8.95431 0 20 0V0C31.0457 0 40 8.95431 40 20V20C40 31.0457 31.0457 40 20 40V40C8.95431 40 0 31.0457 0 20V20Z" fill="white"/>
</clipPath>
</defs>
</svg>
