<svg width="40" height="40" viewBox="0 0 40 40" fill="none" xmlns="http://www.w3.org/2000/svg">
<g clip-path="url(#clip0_1700_5326)">
<rect width="40" height="40" fill="#004A2C"/>
<path d="M19.8184 13.1099C14.959 13.1099 11.0856 17.0537 11.0856 21.9835C11.0856 26.9132 15.0295 30.8571 19.8184 30.8571C24.6777 30.8571 28.5511 26.9132 28.5511 21.9835C28.6216 17.0537 24.6777 13.1099 19.8184 13.1099ZM19.8184 27.2654C16.931 27.2654 14.6069 24.8709 14.6069 21.9835C14.6069 19.096 16.931 16.7016 19.8184 16.7016C22.7058 16.7016 25.0299 19.096 25.0299 21.9835C25.0299 24.8709 22.7058 27.2654 19.8184 27.2654Z" fill="#C2D840"/>
<path d="M18.6905 11.3484C18.7609 11.4188 18.8313 11.4892 18.9017 11.4892C19.9581 11.4892 21.0145 11.278 22.0005 11.0667C22.7751 10.8554 23.6202 10.5737 24.3245 10.1512C24.8879 9.79903 25.3809 9.37647 25.8739 8.95392C26.226 8.6018 26.5781 8.17924 26.8598 7.68627C27.0711 7.33414 27.2824 6.91159 27.4232 6.48903C27.4232 6.41861 27.4936 6.34818 27.4936 6.27776C27.5641 6.13691 27.5641 5.92563 27.4232 5.85521C27.3528 5.78478 27.2824 5.71436 27.2119 5.71436C26.1556 5.71436 25.0992 5.92563 24.1132 6.13691C23.3385 6.34818 22.4934 6.62988 21.7892 7.05244C21.2258 7.40456 20.7328 7.82712 20.2398 8.24967C19.8877 8.6018 19.5356 9.02435 19.2539 9.51732C19.0426 9.86945 18.8313 10.292 18.6905 10.7146C18.6905 10.785 18.62 10.8554 18.62 10.9258C18.62 10.9963 18.62 11.2075 18.6905 11.3484Z" fill="#C2D840"/>
</g>
<defs>
<clipPath id="clip0_1700_5326">
<path d="M0 20C0 8.95431 8.95431 0 20 0V0C31.0457 0 40 8.95431 40 20V20C40 31.0457 31.0457 40 20 40V40C8.95431 40 0 31.0457 0 20V20Z" fill="white"/>
</clipPath>
</defs>
</svg>
