<svg width="40" height="40" viewBox="0 0 40 40" fill="none" xmlns="http://www.w3.org/2000/svg">
<g clip-path="url(#clip0_1700_5306)">
<path d="M0 20.0001C0 8.95438 8.95431 0 20 0V0C31.0457 0 40 8.95438 40 20.0001V20.0001C40 31.0458 31.0457 40.0001 20 40.0001V40.0001C8.95431 40.0001 0 31.0458 0 20.0001V20.0001Z" fill="white"/>
<path d="M29.8159 5.44634C27.0059 3.55734 23.6114 2.43326 19.9704 2.43326C10.2379 2.43326 2.34996 10.3238 2.34996 20.054C2.34996 26.1241 5.4506 31.495 10.1279 34.6423C2.18473 21.1094 14.4008 3.33157 29.8159 5.44634Z" fill="#88BB14"/>
<path d="M34.3122 9.83051C23.6018 7.23723 12.5982 15.3341 12.5982 26.9576C12.5982 29.7213 13.2507 32.3533 14.3748 34.6672C14.331 27.7664 18.5092 20.9124 25.5911 17.4496C27.2771 16.6408 29.0073 16.0788 30.7371 15.7415C30.9619 18.1022 30.759 20.5751 30.1065 23.0233C28.1299 30.4175 22.4408 35.7446 15.9021 37.184C17.2042 37.4993 18.5531 37.6555 19.9704 37.6555C35.3076 37.6555 42.0824 20.7023 34.3122 9.83051Z" fill="#00792A"/>
</g>
<defs>
<clipPath id="clip0_1700_5306">
<path d="M0 20C0 8.95431 8.95431 0 20 0V0C31.0457 0 40 8.95431 40 20V20C40 31.0457 31.0457 40 20 40V40C8.95431 40 0 31.0457 0 20V20Z" fill="white"/>
</clipPath>
</defs>
</svg>
