<svg preserveAspectRatio="none" width="100%" height="100%" overflow="visible" style="display: block;" viewBox="0 0 94.5783 13.519" fill="none" xmlns="http://www.w3.org/2000/svg">
<g id="Group">
<path id="Vector" d="M1.27292e-07 13.3544V0.548675H4.90257C8.79919 0.548675 9.85989 2.39635 9.85989 4.39014C9.85989 6.21929 8.5794 7.6282 6.73172 8.01222L10.8296 13.354H8.79919L4.99436 8.3415H1.66492V13.354H1.27292e-07V13.3544ZM1.66451 2.1037V6.78689H4.95731C6.87825 6.78689 8.12211 5.85379 8.12211 4.39055C8.12211 3.07343 7.29891 2.10411 4.84742 2.10411H1.66451V2.1037Z" fill="var(--fill-0, #222626)"/>
<path id="Vector_2" d="M11.4886 8.5794C11.4886 5.74389 13.5923 3.62168 16.4278 3.62168C19.2452 3.62168 21.1838 5.52409 21.1838 8.30487C21.1838 8.5794 21.1657 8.89016 21.1472 9.12807H13.0613C13.1527 10.8292 14.5616 12.0731 16.4274 12.0731C17.8178 12.0731 18.6957 11.5791 19.4275 10.4081L20.8179 10.9202C20.0495 12.6032 18.5311 13.5178 16.4274 13.5178C13.5194 13.519 11.4886 11.4882 11.4886 8.5794ZM13.135 7.68335H19.6107C19.556 6.23822 18.1471 5.06722 16.4278 5.06722C14.7085 5.06722 13.3363 6.14643 13.135 7.68335Z" fill="var(--fill-0, #222626)"/>
<path id="Vector_3" d="M22.7026 6.27485C23.3065 4.60993 24.8249 3.67725 26.8734 3.67725C29.4529 3.67725 30.7515 5.031 30.7515 7.73851V13.3544H29.215V11.708C28.7211 12.7325 27.2574 13.519 25.7209 13.519C23.7452 13.519 22.41 12.3851 22.41 10.6835C22.41 8.50655 24.2943 7.68335 29.215 7.68335C29.215 5.92705 28.465 5.12237 26.8368 5.12237C25.4097 5.12237 24.477 5.68956 24.0926 6.7873L22.7026 6.27485ZM29.215 9.29312V8.94532C25.3003 8.94532 24.0198 9.38449 24.0198 10.6831C24.0198 11.5429 24.7882 12.0735 26.0321 12.0735C27.8979 12.0735 29.215 10.921 29.215 9.29312Z" fill="var(--fill-0, #222626)"/>
<path id="Vector_4" d="M33.2762 6.97545e-06H34.8128V13.3544H33.2762V6.97545e-06Z" fill="var(--fill-0, #222626)"/>
<path id="Vector_5" d="M41.2156 0.548675H50.4354V2.1037H42.8801V6.07317H49.923V7.6282H42.8801V11.7989H50.6001V13.354H41.2156V0.548675Z" fill="var(--fill-0, #222626)"/>
<path id="Vector_6" d="M52.7775 6.34771C52.7775 4.73794 54.1678 3.67683 56.3082 3.67683C58.4304 3.67683 59.9302 4.64615 60.3143 6.27444L58.9239 6.78647C58.6131 5.67062 57.6615 5.06681 56.2715 5.06681C55.1557 5.06681 54.3872 5.56072 54.3872 6.27444C54.3872 8.45139 60.2595 7.02438 60.2595 10.7378C60.2595 12.439 58.851 13.5182 56.6374 13.5182C54.2777 13.5182 52.7775 12.6402 52.2469 10.9206L53.6373 10.4086C54.0946 11.5429 55.0643 12.1282 56.5275 12.1282C57.8994 12.1282 58.6498 11.6343 58.6498 10.7564C58.6498 8.50655 52.7775 9.8603 52.7775 6.34771Z" fill="var(--fill-0, #222626)"/>
<path id="Vector_7" d="M61.4486 3.84148H63.0584V1.40851H64.5949V3.84148H67.211V5.2866H64.5949V10.6284C64.5949 11.6895 64.9427 12.0735 65.8388 12.0735C66.2413 12.0735 66.7167 12.0002 67.2106 11.8722V13.3173C66.7348 13.4272 66.0215 13.5186 65.4543 13.5186C63.7347 13.5186 63.058 12.6954 63.058 10.4818V5.2866H61.4482V3.84148H61.4486Z" fill="var(--fill-0, #222626)"/>
<path id="Vector_8" d="M68.7843 6.27485C69.3882 4.60993 70.9061 3.67725 72.9551 3.67725C75.5346 3.67725 76.8332 5.031 76.8332 7.73851V13.3544H75.2967V11.708C74.8028 12.7325 73.3391 13.519 71.8026 13.519C69.8269 13.519 68.4917 12.3851 68.4917 10.6835C68.4917 8.50655 70.376 7.68335 75.2967 7.68335C75.2967 5.92705 74.5468 5.12237 72.9185 5.12237C71.4914 5.12237 70.5588 5.68956 70.1743 6.7873L68.7843 6.27485ZM75.2967 9.29312V8.94532C71.3819 8.94532 70.1015 9.38449 70.1015 10.6831C70.1015 11.5429 70.8699 12.0735 72.1138 12.0735C73.9796 12.0735 75.2967 10.921 75.2967 9.29312Z" fill="var(--fill-0, #222626)"/>
<path id="Vector_9" d="M78.0777 3.84148H79.6875V1.40851H81.224V3.84148H83.8401V5.2866H81.224V10.6284C81.224 11.6895 81.5718 12.0735 82.4678 12.0735C82.8704 12.0735 83.3458 12.0002 83.8397 11.8722V13.3173C83.3639 13.4272 82.6506 13.5186 82.0834 13.5186C80.3637 13.5186 79.6871 12.6954 79.6871 10.4818V5.2866H78.0773V3.84148H78.0777Z" fill="var(--fill-0, #222626)"/>
<path id="Vector_10" d="M84.8831 8.5794C84.8831 5.74389 86.9868 3.62168 89.8223 3.62168C92.6397 3.62168 94.5783 5.52409 94.5783 8.30487C94.5783 8.5794 94.5602 8.89016 94.5417 9.12807H86.4562C86.5476 10.8292 87.9565 12.0731 89.8223 12.0731C91.2127 12.0731 92.0906 11.5791 92.8224 10.4081L94.2128 10.9202C93.4444 12.6032 91.926 13.5178 89.8223 13.5178C86.9135 13.519 84.8831 11.4882 84.8831 8.5794ZM86.5295 7.68335H93.0052C92.9505 6.23822 91.5416 5.06722 89.8223 5.06722C88.1026 5.06722 86.7308 6.14643 86.5295 7.68335Z" fill="var(--fill-0, #222626)"/>
</g>
</svg>
