<?xml version="1.0" encoding="utf-8"?>
<!-- Generator: Adobe Illustrator 28.0.0, SVG Export Plug-In . SVG Version: 6.00 Build 0)  -->
<svg version="1.1" id="Слой_1" xmlns="http://www.w3.org/2000/svg" xmlns:xlink="http://www.w3.org/1999/xlink" x="0px" y="0px"
	 viewBox="0 0 1000 1000.000061" style="enable-background:new 0 0 1000 1000.000061;" xml:space="preserve">
<style type="text/css">
	.st0{fill:#FFDD00;}
	.st1{fill:#020A0A;}
	.st2{fill:#FFFFFF;}
</style>
<path class="st0" d="M1000,499.999939C1000,223.854248,776.1393433,0,500,0C223.854248,0,0,223.8542786,0,499.999939
	c0,276.1394653,223.8542633,500.0001221,500,500.0001221C776.1393433,1000.000061,1000,776.1394043,1000,499.999939"/>
<path class="st1" d="M286.3545837,740.0570679l-45.4082947,10.8464355l-1.189621-61.1719971
	c-6.2405853,4.300354-17.20784,9.472168-29.7971954,12.4812622c-45.6373138,10.9163208-58.9773407-12.9011841-59.5879974-44.352356
	l-1.2341309-63.4049683l45.4082336-10.9099731l0.9987793,51.2545776
	c0.3943939,20.2995605,9.6757965,21.1327515,24.0591278,17.6848755c7.4238434-1.7747803,13.9125977-4.6057129,19.2689362-8.1807251
	l-1.3868256-71.0706787l45.4082947-10.9035034L286.3545837,740.0570679z"/>
<polygon class="st1" points="305.9142151,735.3812866 303.39505,605.8743896 344.0831299,596.109436 345.1455078,650.729187 
	344.611145,669.4827881 345.056427,669.3746948 352.8492432,651.6897583 383.428894,586.675354 422.5456848,577.2921143 
	425.0648193,706.9264526 384.3704224,716.6404419 383.3016357,661.5055542 383.619751,643.0444336 383.3971252,643.1016846 
	375.3943481,661.3527222 345.0309753,726.0427246 "/>
<polygon class="st1" points="545.5736084,609.125 569.3400879,542.0814819 613.8513794,531.4004517 584.9765625,602.7573242 
	619.296814,660.5195312 573.8822021,671.3721313 545.7199097,616.5043335 546.9094849,677.8163452 505.9924622,687.5940552 
	504.8028564,626.2946777 479.0197449,694.038269 433.6051025,704.8845215 465.3807373,631.3901978 434.2348938,574.4932861 
	478.5235596,563.8695068 504.6565247,618.9217529 503.4732971,557.8833008 544.3903809,548.0675049 "/>
<polygon class="st1" points="628.0629883,658.4265137 625.5437622,528.5949707 666.2318726,518.8300781 667.2941895,573.5771484 
	666.7598267,592.3816528 667.2052002,592.2734985 674.9916382,574.550354 705.571228,509.3897705 744.6880493,500.0001526 
	747.2071533,629.9526367 706.519104,639.6792603 705.4503784,584.3979492 705.7684937,565.8988037 705.5394287,565.949707 
	697.5430908,584.2453613 667.1796875,649.081543 "/>
<polygon class="st1" points="804.5878906,548.8881226 835.0656738,478.3138428 880.2513428,467.4676208 845.9311523,537.9591675 
	888.3876343,596.2113647 840.9564819,607.553833 804.6704712,552.9660034 805.8856201,615.9318237 765.1975708,625.6586914 
	762.6783447,495.6871948 803.3664551,485.9222717 "/>
<path class="st1" d="M667.682373,292.5265808c-5.3754272-1.9402161-17.1378174-4.3193665-27.0491333-5.8716736
	c-1.8002319-3.6515198-4.3765869-7.8627625-8.3081055-13.2063904c-5.6998291-7.7481995-19.2625732-20.4839783-32.7234497-28.6202698
	c-32.2780762-19.5233917-70.2625732-22.8949738-106.0840759-11.1071625
	c-30.6750793,10.1083374-52.4886169,25.3314056-65.6123352,51.4644012
	c-7.1693726,14.313324-12.5130615,37.7363586-12.5130615,37.7363586
	c-20.2930908-4.2050171-38.0098572-12.9584656-61.7063599-26.1902466
	c-10.712738,29.5682373-6.4251404,72.171051,11.8514099,95.4541016
	c21.9216919,27.9332275,50.4656677,41.1141663,76.3251343,45.401886
	c-17.8058472,3.2952881-37.2083435,7.7800293-37.2083435,7.7800293s16.9978638,16.0054626,56.5536194,26.1648254
	c33.3914185,8.5562134,60.4658508,8.193573,76.1659851,6.6987c17.7167969-1.2723694,35.3762817-7.0613403,52.6795044-18.5501709
	c42.1638794-27.9332275,65.8858643-83.7426147,60.491394-134.5135498
	c8.9441528-8.7788696,17.4685669-17.5259094,21.3173218-23.8683777c0.8842163-1.437561,1.6030884-2.9580688,1.4694214-4.262085
	C673.1087036,294.7403259,670.392334,293.4935608,667.682373,292.5265808 M611.7585449,329.1241455
	c-2.8244629,8.6072693-7.0612183,17.1634521-14.2052002,22.7297668c-8.0282593,6.2533569-18.6837158,7.9454346-28.8430176,8.4416504
	c-4.9047241,0.2481079-9.9111938,0.2735596-14.6759033-1.0242615c-9.8539429-2.6590881-17.6022339-10.7699585-21.673584-20.1277466
	c-4.0967407-9.3577881-4.8983765-19.8223572-4.43396-30.0072021c0.5852051-12.5383301,3.2125854-25.4967957,10.8272095-35.4651489
	c7.6147461-9.993988,23.2576294-13.6455078,35.7706299-12.8693542
	c17.1060791,1.0497131,29.4537354,11.7369385,36.4577026,25.3251953
	C617.7128296,299.1998596,616.3514404,315.1416016,611.7585449,329.1241455"/>
<path class="st2" d="M610.9822998,286.1268616c-7.0039673-13.5944519-19.3515625-24.2752991-36.4639893-25.3314209
	c-12.5130005-0.7697449-28.1495972,2.8817749-35.7642212,12.8757629
	c-7.6147461,9.9683533-10.2420044,22.9204102-10.8273315,35.4651489
	c-0.4707031,10.184845,0.3308105,20.6494141,4.4276123,30.0072021c4.0713501,9.3577881,11.8260498,17.4686584,21.6799316,20.1277466
	c4.7647095,1.297821,9.7712402,1.2721863,14.6760254,1.0242615c10.1528931-0.4962158,20.8146973-2.1885071,28.8429565-8.4418335
	c7.1439209-5.5663147,11.3806763-14.1225281,14.2052002-22.7295837
	C616.3514404,315.1416016,617.7064209,299.1934509,610.9822998,286.1268616 M584.9575806,323.1697693
	c-7.0612793,0-12.7866821-9.6311646-12.7866821-21.5080566c0-11.8769226,5.7254028-21.5144958,12.7866821-21.5144958
	c7.0610962,0,12.7928467,9.6375732,12.7928467,21.5144958C597.7504272,313.5386047,592.0186768,323.1697693,584.9575806,323.1697693
	"/>
<path class="st1" d="M597.7442017,301.6617126c0,11.8768921-5.7316895,21.5082397-12.7929688,21.5082397
	c-7.0549316,0-12.7866211-9.6313477-12.7866211-21.5082397c0-11.8767395,5.7316895-21.5080872,12.7866211-21.5080872
	C592.0125122,280.1536255,597.7442017,289.7849731,597.7442017,301.6617126"/>
</svg>
