<?xml version="1.0" encoding="utf-8"?>
<!-- Generator: Adobe Illustrator 28.0.0, SVG Export Plug-In . SVG Version: 6.00 Build 0)  -->
<svg version="1.1" id="Слой_1" xmlns="http://www.w3.org/2000/svg" xmlns:xlink="http://www.w3.org/1999/xlink" x="0px" y="0px"
	 viewBox="0 0 992.831543 1000" enable-background="new 0 0 992.831543 1000" xml:space="preserve">
<path fill="#5FAF2D" d="M625.447998,316.3082275L495.5196838,446.2365417L365.5913696,316.3082275
	c-71.6845703-71.6845856-71.6845703-188.1720428,0-262.5447998c71.6845703-71.6845856,188.1720581-71.6845856,259.8566284,0
	C697.1326294,128.1362,697.1326294,244.623642,625.447998,316.3082275z"/>
<path fill="#005A28" d="M365.5913696,683.6917725l129.9283142-129.9283447L625.447998,683.6917725
	c71.6846313,71.6845703,71.6846313,188.1719971,0,262.5447998c-71.6845703,71.6845703-188.1719971,71.6845703-259.8565979,0
	C293.9067993,871.8637695,293.9067993,755.3763428,365.5913696,683.6917725z"/>
<path fill="#1EAF37" d="M679.2114868,631.7203979L549.2831421,499.9999695l129.9283447-129.9283142
	c71.6845703-71.6845703,188.1719971-71.6845703,259.8565674,0s71.6846313,188.1720581,0,262.5447998
	C867.3834839,703.4049683,750.8960571,703.4049683,679.2114868,631.7203979z"/>
<path fill="#AAE641" d="M313.6200562,370.0716553l129.9283142,129.9283142L313.6200562,629.9282837
	c-71.6845856,71.6846313-188.1720276,71.6846313-259.8566284,0s-71.6845856-188.1719971,0-262.5447693
	C123.6559067,298.387085,241.9354706,298.387085,313.6200562,370.0716553z"/>
</svg>
