<?xml version="1.0" encoding="utf-8"?>
<svg version="1.1" xmlns="http://www.w3.org/2000/svg" x="0px" y="0px"
	 viewBox="104 0 755 755" xml:space="preserve">
<style type="text/css">
	.st0{fill:#EB2316;}
	.st1{fill:#FFFFFF;}
	.st2{fill:#008F32;}
</style>
<g>
	<path class="st1" d="M481.5,0c-208,0-377.1,169.2-377.1,377.1s169.2,377.1,377.1,377.1c207.9,0,377.1-169.2,377.1-377.1
		S689.4,0,481.5,0"/>
	<path class="st0" d="M688.3,118.7C642.2,238.5,519.8,223,433.5,226l-21,81.7c106.5-86.8,247.2-0.7,232.2,130.2
		c-10.1,88.2-73,145.9-139.5,162.5c-72.5,18.1-152.8-9-188.8-82.8c-3.8-7.8-10.5-23.4-13-31.8l76.4-19.6c1.3,4.4,3.6,8.7,6,12.5
		c51.2,82.5,154.8,41.2,166.6-44.4c11.9-87.1-110.3-133.5-166-31.7l-67.8-28.9l-1.2-0.5l25.2-101.3c4-18,16-65.1,17.4-69.6
		c2.2-7,2.6-9.4,5.1-15.8C408.7,72.4,494.6,60.9,570.9,60.9c3.1,0,6.1,0,9.1,0.1c-31.1-9.7-64.2-14.9-98.5-14.9
		c-182.8,0-331,148.2-331,331c0,182.8,148.2,331,331,331c182.8,0,331-148.2,331-331C812.5,272.6,764,179.4,688.3,118.7"/>
	<path class="st2" d="M658.2,96.4c-12.8,39.9-35.2,64.9-69.8,78.4c-36,14-79.8,14.4-122.2,14.7c-22.8,0.2-44.6,0.4-64.6,2.8
		c36-86.9,100.5-95.4,169.4-95.4c9.6,0,19.2,0.2,28.5,0.4c9.3,0.2,18.1,0.4,26.8,0.4C638.7,97.6,649,97.2,658.2,96.4"/>
</g>
</svg>
