<svg preserveAspectRatio="none" width="100%" height="100%" overflow="visible" style="display: block;" viewBox="0 0 35.7388 24" fill="none" xmlns="http://www.w3.org/2000/svg">
<g id="Group">
<g id="Group_2">
<path id="Vector" d="M22.5009 23.7798L19.8482 19.3707L17.2502 23.7798H14.1401L18.1355 17.1386L14.0631 10.9733H17.3123L19.921 15.0897L22.4092 10.9733H25.5192L21.5131 17.3399L25.6291 23.7798H22.5009Z" fill="var(--fill-0, #222626)"/>
<path id="Vector_2" d="M35.7388 19.4263C35.7388 22.2437 33.6166 24 30.8358 24C28.3844 24 26.3206 22.6462 26.1193 19.7008H28.7721C28.9548 20.9813 29.9797 21.5304 31.0956 21.5304C32.486 21.5304 33.0861 20.5973 33.0861 19.3901C33.0861 18.1277 32.153 17.3411 30.854 17.3411C29.7747 17.3411 29.061 17.8536 28.7317 18.4022H26.1963L27.0726 10.9745H35.4124L35.1342 13.4626H29.1685L28.9314 15.9207C28.9314 15.9207 29.5578 15.1827 31.457 15.1827C33.7446 15.1819 35.7388 16.718 35.7388 19.4263Z" fill="var(--fill-0, #222626)"/>
</g>
<path id="Vector_3" d="M26.4334 9.37914C25.0199 3.87028 20.5368 0 11.233 0H0L1.52498 10.311C2.67211 19.6148 6.23039 22.608 12.5275 23.7102C12.5567 23.7148 12.7563 23.7432 12.7588 23.5098C12.7596 23.4258 12.7065 23.3534 12.6337 23.3221C8.3773 21.53 7.89161 15.6527 6.98239 9.75575L6.27896 5.05569H12.6913C18.6031 5.05569 23.1677 4.96225 26.0576 9.52608C26.1004 9.59029 26.1675 9.63762 26.2469 9.63762C26.3585 9.63762 26.4416 9.54707 26.4416 9.43553C26.4416 9.41536 26.4387 9.39642 26.4334 9.37914Z" fill="var(--fill-0, #5FAF2D)"/>
</g>
</svg>
